<?xml version="1.0" encoding="utf-8"?>
<!-- Generator: Adobe Illustrator 21.1.0, SVG Export Plug-In . SVG Version: 6.00 Build 0)  -->
<svg version="1.1" id="Layer_1" xmlns="http://www.w3.org/2000/svg" xmlns:xlink="http://www.w3.org/1999/xlink" x="0px" y="0px"
	 viewBox="0 0 100 125" style="enable-background:new 0 0 100 125;" xml:space="preserve">
<style type="text/css">
	.st0{display:none;}
	.st1{fill:none;stroke:#000000;stroke-miterlimit:10;}
	.st2{fill:none;stroke:#000000;stroke-width:2;stroke-miterlimit:10;}
</style>
<title>69 all</title>
<path class="st0" d="M55,29.8C49.2,24,40,22.1,32.2,26c-7.8,3.9-11.9,12.2-10.8,20.4c-1.2,0.8,14.5,17.2,19.7,17.2
	c3,0,5.9-0.7,8.8-2.1c7.8-3.9,11.9-12.2,10.8-20.4C61.5,40.4,56.4,29.3,55,29.8z"/>
<path class="st1" d="M24.1,42c0,0-11.5,7.4-9.2,11.4s15.8-0.7,15.8-0.7s21.6-7.1,35.9-18.4c0,0,9.6-6.4,7.8-10.3s-14.6,0.6-14.6,0.6
	"/>
<circle class="st2" cx="44.6" cy="38.7" r="20.7"/>
<circle cx="70.6" cy="31.6" r="2.4"/>
</svg>
